<svg width="120" height="76" viewBox="0 0 120 76" fill="none" xmlns="http://www.w3.org/2000/svg">
<path d="M11.1624 30V20.523H14.8804C15.617 20.523 16.2367 20.6443 16.7394 20.887C17.2507 21.1297 17.6364 21.4763 17.8964 21.927C18.165 22.3777 18.2994 22.915 18.2994 23.539C18.2994 24.163 18.1564 24.7047 17.8704 25.164C17.5844 25.6147 17.1857 25.9613 16.6744 26.204C16.163 26.438 15.5607 26.555 14.8674 26.555H12.4234V25.424H14.7634C15.4567 25.424 15.9767 25.255 16.3234 24.917C16.6787 24.5703 16.8564 24.124 16.8564 23.578C16.8564 22.9713 16.67 22.5163 16.2974 22.213C15.9247 21.901 15.4134 21.745 14.7634 21.745H12.3454L12.5794 21.537V30H11.1624ZM25.5484 30.117C24.8464 30.117 24.2094 30.0087 23.6374 29.792C23.0654 29.5667 22.5714 29.2417 22.1554 28.817C21.7394 28.3923 21.4187 27.881 21.1934 27.283C20.9767 26.685 20.8684 26.0133 20.8684 25.268C20.8684 24.514 20.981 23.838 21.2064 23.24C21.4317 22.642 21.748 22.135 22.1554 21.719C22.5714 21.2943 23.0654 20.9737 23.6374 20.757C24.2094 20.5317 24.8464 20.419 25.5484 20.419C26.259 20.419 26.896 20.5317 27.4594 20.757C28.0314 20.9737 28.5254 21.2943 28.9414 21.719C29.3574 22.135 29.6737 22.642 29.8904 23.24C30.1157 23.838 30.2284 24.514 30.2284 25.268C30.2284 26.022 30.1157 26.698 29.8904 27.296C29.665 27.894 29.3444 28.4053 28.9284 28.83C28.521 29.246 28.0314 29.5667 27.4594 29.792C26.8874 30.0087 26.2504 30.117 25.5484 30.117ZM25.5484 28.895C26.207 28.895 26.7747 28.752 27.2514 28.466C27.7367 28.1713 28.1094 27.7553 28.3694 27.218C28.638 26.6807 28.7724 26.0307 28.7724 25.268C28.7724 24.6873 28.6944 24.176 28.5384 23.734C28.391 23.2833 28.1744 22.902 27.8884 22.59C27.611 22.278 27.273 22.044 26.8744 21.888C26.4844 21.7233 26.0424 21.641 25.5484 21.641C24.8897 21.641 24.3177 21.784 23.8324 22.07C23.3557 22.356 22.9874 22.7677 22.7274 23.305C22.4674 23.8423 22.3374 24.4967 22.3374 25.268C22.3374 25.84 22.411 26.3513 22.5584 26.802C22.7144 27.2527 22.931 27.634 23.2084 27.946C23.4857 28.2493 23.8194 28.4833 24.2094 28.648C24.608 28.8127 25.0544 28.895 25.5484 28.895ZM34.6081 30L32.2941 20.523H33.8411L35.0761 26.009L35.5831 28.687H35.6871L36.2331 26.009L37.5201 20.523H39.3011L40.5751 25.905L41.1601 28.7H41.2511L41.7581 25.905L42.9541 20.523H44.5011L42.1871 30H40.2241L39.0541 25.008L38.4561 22.07H38.3651L37.7541 25.008L36.5711 30H34.6081ZM47.1688 30V20.523H53.8118V21.745H48.2608L48.5858 21.433V29.077L48.2608 28.765H53.8248V30H47.1688ZM48.2608 25.736V24.592H53.1748V25.736H48.2608ZM56.6192 30V20.523H61.1302C61.5115 20.523 61.8582 20.5577 62.1702 20.627C62.4822 20.6963 62.7595 20.8003 63.0022 20.939C63.2535 21.0777 63.4615 21.251 63.6262 21.459C63.7995 21.6583 63.9295 21.8923 64.0162 22.161C64.1029 22.4297 64.1462 22.733 64.1462 23.071C64.1462 23.6517 63.9989 24.1457 63.7042 24.553C63.4095 24.9517 62.9849 25.229 62.4302 25.385V25.463C62.7942 25.5237 63.0889 25.6363 63.3142 25.801C63.5395 25.957 63.6999 26.165 63.7952 26.425C63.8992 26.6763 63.9512 26.984 63.9512 27.348V28.973C63.9512 29.1377 63.9555 29.3067 63.9642 29.48C63.9815 29.6447 64.0292 29.818 64.1072 30H62.6902C62.6295 29.87 62.5862 29.7183 62.5602 29.545C62.5429 29.3717 62.5342 29.1723 62.5342 28.947V27.595C62.5342 27.2743 62.4865 27.0057 62.3912 26.789C62.2959 26.5723 62.1269 26.412 61.8842 26.308C61.6415 26.1953 61.2992 26.139 60.8572 26.139H57.8802V24.982H60.8182C61.4942 24.982 61.9752 24.826 62.2612 24.514C62.5559 24.202 62.7032 23.799 62.7032 23.305C62.7032 23.0277 62.6599 22.7893 62.5732 22.59C62.4865 22.382 62.3565 22.213 62.1832 22.083C62.0099 21.953 61.8105 21.862 61.5852 21.81C61.3599 21.7493 61.1042 21.719 60.8182 21.719H58.0362V30H56.6192ZM67.1741 30V20.523H73.8171V21.745H68.2661L68.5911 21.433V29.077L68.2661 28.765H73.8301V30H67.1741ZM68.2661 25.736V24.592H73.1801V25.736H68.2661ZM76.6245 30V20.523H80.4465C81.3651 20.523 82.1408 20.7223 82.7735 21.121C83.4148 21.511 83.9001 22.0613 84.2295 22.772C84.5675 23.4827 84.7365 24.3147 84.7365 25.268C84.7365 25.9787 84.6411 26.6243 84.4505 27.205C84.2598 27.7857 83.9825 28.284 83.6185 28.7C83.2545 29.116 82.8038 29.4367 82.2665 29.662C81.7378 29.8873 81.1311 30 80.4465 30H76.6245ZM78.0415 28.778H80.2515C80.7108 28.778 81.1268 28.7087 81.4995 28.57C81.8721 28.4227 82.192 28.206 82.4615 27.92C82.7301 27.6253 82.9338 27.257 83.0725 26.815C83.2198 26.3643 83.2935 25.84 83.2935 25.242C83.2935 24.436 83.1635 23.7773 82.9035 23.266C82.6521 22.746 82.2968 22.3647 81.8375 22.122C81.3868 21.8707 80.8581 21.745 80.2515 21.745H78.0415V28.778ZM91.8436 30V20.523H96.2246C97.1519 20.523 97.8583 20.7483 98.3436 21.199C98.8289 21.641 99.0716 22.226 99.0716 22.954C99.0716 23.3007 99.0109 23.6213 98.8896 23.916C98.7683 24.202 98.5863 24.4447 98.3436 24.644C98.1009 24.8347 97.7976 24.9733 97.4336 25.06V25.125C97.8669 25.203 98.2223 25.346 98.4996 25.554C98.7769 25.762 98.9849 26.022 99.1236 26.334C99.2623 26.6373 99.3316 26.971 99.3316 27.335C99.3316 27.907 99.2016 28.3923 98.9416 28.791C98.6816 29.181 98.3089 29.48 97.8236 29.688C97.3383 29.896 96.7533 30 96.0686 30H91.8436ZM93.2216 28.882H95.9386C96.5973 28.882 97.0869 28.7303 97.4076 28.427C97.7283 28.1237 97.8886 27.7337 97.8886 27.257C97.8886 26.7457 97.7283 26.3557 97.4076 26.087C97.0869 25.8183 96.6449 25.684 96.0816 25.684H93.0656V24.605H96.0166C96.3893 24.605 96.6926 24.5443 96.9266 24.423C97.1693 24.3017 97.3513 24.1327 97.4726 23.916C97.5939 23.6907 97.6546 23.435 97.6546 23.149C97.6546 22.655 97.4943 22.2823 97.1736 22.031C96.8529 21.771 96.4239 21.641 95.8866 21.641H93.2216V28.882ZM104.671 30V26.269L101.161 20.523H102.786L104.281 23.123L105.334 25.021H105.412L106.491 23.123L107.999 20.523H109.611L106.088 26.269V30H104.671Z" fill="#9C9C9C"/>
<path d="M3.62234 43.4718L9.27519 43.5061L6.11433 57.841L11.4025 57.873L10.9464 60.0586L0.00537109 59.9923L3.62234 43.4718ZM20.3645 48.6271C22.4311 48.6397 23.9311 49.0135 24.8645 49.7485C25.8498 50.5187 26.337 51.7895 26.3262 53.5609C26.3197 54.6549 26.1313 55.6437 25.7612 56.5272C25.3913 57.3934 24.8746 58.1109 24.2112 58.68C22.8846 59.7835 20.9709 60.3277 18.4701 60.3126C16.334 60.2996 14.8082 59.8822 13.8927 59.0604C12.908 58.2034 12.4207 56.924 12.4311 55.2221C12.4379 54.0932 12.6699 53.07 13.127 52.1523C13.6015 51.2347 14.2747 50.4746 15.1467 49.872C16.4197 49.0288 18.1589 48.6138 20.3645 48.6271ZM18.5329 58.5415C18.9671 58.5441 19.342 58.3032 19.6575 57.8188C19.9904 57.3346 20.2545 56.7457 20.4497 56.0522C20.6451 55.3413 20.7885 54.6127 20.8798 53.8665C20.9886 53.103 21.0447 52.4434 21.0481 51.8876C21.051 51.4014 21.0012 51.0364 20.8984 50.7926C20.8131 50.5316 20.6142 50.4001 20.3016 50.3982C19.8327 50.3954 19.423 50.6447 19.0727 51.1463C18.7397 51.6479 18.4668 52.2455 18.2543 52.9388C18.0417 53.6322 17.881 54.3433 17.7724 55.0721C17.6811 55.8009 17.6342 56.3911 17.6314 56.8427C17.6246 57.9715 17.9251 58.5378 18.5329 58.5415ZM38.6429 59.6011C37.9118 59.892 37.1376 60.0957 36.3207 60.2122C35.521 60.3464 34.6088 60.4103 33.5842 60.4041C32.6811 60.3986 31.8481 60.3068 31.085 60.1284C30.3393 59.9329 29.6899 59.6337 29.1366 59.2309C28.5833 58.8281 28.1522 58.3131 27.8434 57.6861C27.5347 57.0417 27.383 56.2679 27.3885 55.3648C27.3942 54.4269 27.5558 53.5596 27.8732 52.7627C28.2081 51.9484 28.6987 51.2394 29.345 50.6354C30.0086 50.0315 30.8451 49.559 31.8544 49.2177C32.8638 48.8766 34.0631 48.7101 35.4525 48.7186C36.5813 48.7254 37.562 48.8268 38.3944 49.023C39.2269 49.2017 39.9105 49.6139 40.445 50.2598L39.6954 53.5897L36.1525 53.5683C36.1717 53.2731 36.1907 53.0128 36.2094 52.7871C36.2281 52.5614 36.2383 52.3097 36.24 52.0318C36.2433 51.4761 36.185 51.0849 36.0647 50.8585C35.9446 50.6146 35.7456 50.4918 35.4678 50.4901C34.9815 50.4871 34.5546 50.7278 34.1869 51.2118C33.8194 51.6784 33.512 52.2498 33.2647 52.9256C33.035 53.5841 32.8571 54.2864 32.731 55.0325C32.6224 55.7612 32.5665 56.3861 32.5633 56.9071C32.5622 57.0981 32.5696 57.2979 32.5858 57.5064C32.602 57.6975 32.6356 57.8801 32.6866 58.0541C32.755 58.2282 32.841 58.3676 32.9446 58.4725C33.0481 58.5773 33.1955 58.6303 33.3865 58.6314C33.5602 58.6325 33.7602 58.5816 33.9866 58.4788C34.213 58.376 34.431 58.2209 34.6407 58.0138C34.8505 57.7893 35.0519 57.504 35.2451 57.1578C35.4382 56.8117 35.5883 56.3957 35.6955 55.9101L39.4207 55.9326L38.6429 59.6011ZM42.5952 50.0122C43.4836 49.5834 44.3885 49.2764 45.3101 49.0909C46.2492 48.8882 47.2918 48.7903 48.438 48.7972C49.5494 48.804 50.4694 48.8964 51.1978 49.0744C51.926 49.2525 52.5064 49.5079 52.9385 49.8404C53.3707 50.1731 53.6722 50.5657 53.8431 51.0183C54.014 51.4708 54.0978 51.9837 54.0943 52.5568C54.0923 52.8867 54.0641 53.2426 54.0097 53.6243C53.9727 54.0063 53.9273 54.3272 53.8736 54.5874L52.6145 60.311L48.4205 60.2856L47.9617 58.6156L47.8054 58.6146C47.246 59.2191 46.5919 59.684 45.8432 60.0095C45.1119 60.3177 44.3815 60.4695 43.6521 60.4651C43.2353 60.4626 42.8275 60.3993 42.4289 60.2754C42.0302 60.1514 41.6753 59.9668 41.3641 59.7218C41.0531 59.4594 40.8032 59.1366 40.6145 58.7534C40.4259 58.3528 40.3333 57.8747 40.3366 57.3189C40.3421 56.4158 40.5896 55.7052 41.079 55.1873C41.5858 54.6519 42.2395 54.2564 43.04 54.0007C43.8579 53.7278 44.7707 53.5597 45.7784 53.4963C46.8034 53.4331 47.8283 53.4045 48.8529 53.4107C48.8887 53.2373 48.9336 52.9945 48.9876 52.6821C49.0417 52.3525 49.0694 52.0661 49.0709 51.8229C49.0728 51.5103 48.9878 51.2233 48.8156 50.9617C48.661 50.6829 48.3232 50.542 47.8023 50.5388C47.1944 50.5351 46.7418 50.7147 46.4443 51.0777C46.1643 51.4233 45.9794 51.8476 45.8895 52.3508L42.0862 52.3277L42.5952 50.0122ZM48.559 54.6334L48.09 54.6305C47.5864 54.6275 47.1519 54.6943 46.7863 54.8311C46.4382 54.9505 46.1507 55.1137 45.9236 55.3208C45.714 55.5279 45.5563 55.7615 45.4504 56.0213C45.3447 56.2812 45.291 56.5414 45.2894 56.8018C45.2869 57.2186 45.3892 57.5318 45.5963 57.7415C45.8209 57.9513 46.0807 58.0571 46.376 58.0589C46.7407 58.061 47.0975 57.933 47.4464 57.6746C47.8126 57.4163 48.0405 57.0703 48.13 56.6367L48.559 54.6334ZM60.0846 60.3562L54.7704 60.324L58.5755 42.8409L63.9158 42.8732L60.0846 60.3562ZM77.5226 58.5863C77.1389 58.8444 76.7119 59.1024 76.2414 59.36C75.7883 59.6178 75.2919 59.8492 74.7523 60.0543C74.2126 60.2595 73.6385 60.421 73.03 60.5389C72.4387 60.6743 71.8217 60.74 71.1791 60.7361C70.0677 60.7294 69.0615 60.5409 68.1607 60.1707C67.2598 59.8005 66.4901 59.2922 65.8514 58.6458C65.2128 57.982 64.7139 57.2061 64.3545 56.3182C64.0126 55.4304 63.8448 54.4568 63.8512 53.3975C63.8592 52.0775 64.1014 50.8025 64.5778 49.5723C65.0715 48.3423 65.7468 47.2522 66.6035 46.3022C67.4776 45.3523 68.5155 44.6031 69.7172 44.0546C70.9363 43.4889 72.2753 43.2104 73.7341 43.2193C74.4287 43.2235 75.0537 43.2794 75.6088 43.3869C76.1812 43.4946 76.6927 43.6367 77.1431 43.8131C77.5938 43.9721 77.9921 44.1482 78.3383 44.3413C78.6845 44.5345 78.9786 44.7186 79.2207 44.8937L77.566 47.1241C77.1853 46.8786 76.6746 46.615 76.0338 46.3333C75.3929 46.0515 74.5775 45.9076 73.5876 45.9016C72.6498 45.896 71.7716 46.0817 70.953 46.4588C70.1346 46.8186 69.4195 47.3266 68.8076 47.9828C68.2133 48.6218 67.7398 49.3831 67.3871 50.2667C67.0518 51.133 66.8811 52.0699 66.8751 53.0771C66.8704 53.8412 66.9791 54.5279 67.2013 55.1371C67.4233 55.7463 67.7414 56.2692 68.1557 56.7059C68.5699 57.1252 69.0628 57.4582 69.6345 57.7048C70.2235 57.9341 70.8741 58.051 71.5862 58.0553C72.1072 58.0585 72.6111 58.0094 73.098 57.9082C73.6023 57.807 74.0633 57.6796 74.481 57.5258C74.9161 57.3721 75.308 57.2008 75.6564 57.0119C76.0224 56.8057 76.3363 56.5992 76.598 56.3924L77.5226 58.5863ZM88.1992 59.172C87.7451 59.6381 87.1865 60.0255 86.5252 60.3341C85.8805 60.6428 85.1415 60.7946 84.3079 60.7896C82.9012 60.7811 81.7837 60.3401 80.9553 59.4667C80.1445 58.5761 79.744 57.3145 79.7539 55.682C79.7596 54.7443 79.9128 53.8247 80.2135 52.9234C80.5316 52.0049 80.9794 51.1913 81.5569 50.4828C82.1344 49.7569 82.8412 49.1793 83.6775 48.7503C84.5138 48.3038 85.4616 48.0837 86.5209 48.0902C87.3549 48.0952 88.0481 48.2557 88.6024 48.5716C89.1557 48.8876 89.6055 49.2638 89.95 49.7L90.1926 48.3468L93.0579 48.3642L90.8219 60.5425L87.9566 60.5251L88.1992 59.172ZM85.2084 58.3463C85.8336 58.35 86.3992 58.2058 86.9042 57.9137C87.4101 57.6041 87.8375 57.216 88.188 56.7492C88.5557 56.2825 88.8363 55.7632 89.0314 55.1912C89.2257 54.6193 89.3241 54.0554 89.3275 53.4997C89.3336 52.614 89.1031 51.8918 88.6378 51.3333C88.1897 50.7748 87.5224 50.4928 86.6366 50.4875C86.0289 50.4839 85.4723 50.6281 84.9669 50.9203C84.4789 51.1951 84.0599 51.566 83.7097 52.0328C83.3597 52.4823 83.0873 53.0016 82.8927 53.5909C82.6981 54.1802 82.5989 54.7876 82.5951 55.4127C82.5898 56.2984 82.8025 57.0118 83.2334 57.5527C83.6818 58.0765 84.3401 58.341 85.2084 58.3463ZM97.0749 48.3885L99.9661 48.4061L99.5621 50.6179C100.001 49.9606 100.542 49.3908 101.188 48.9084C101.833 48.4261 102.573 48.1874 103.406 48.1925C103.65 48.1939 103.875 48.2127 104.083 48.2487C104.291 48.2847 104.491 48.3379 104.681 48.4086L103.806 51.0344C103.684 50.9989 103.512 50.9632 103.286 50.9271C103.077 50.8737 102.861 50.8463 102.635 50.845C101.75 50.8396 100.966 51.1388 100.285 51.7425C99.6216 52.3289 99.165 53.0991 98.9163 54.0527L97.7301 60.5843L94.8389 60.5668L97.0749 48.3885ZM113.003 59.3223C112.548 59.7884 111.99 60.1758 111.328 60.4844C110.684 60.7931 109.945 60.9449 109.111 60.9398C107.705 60.9314 106.587 60.4904 105.759 59.617C104.948 58.7263 104.548 57.4648 104.557 55.8323C104.563 54.8945 104.716 53.975 105.017 53.0737C105.335 52.1551 105.783 51.3417 106.361 50.633C106.938 49.9072 107.644 49.3296 108.481 48.9005C109.317 48.4541 110.265 48.234 111.325 48.2404C112.158 48.2455 112.852 48.406 113.405 48.7219C113.959 49.0379 114.408 49.4141 114.754 49.8503L116.183 41.9395L119.074 41.957L115.626 60.6928L112.76 60.6754L113.003 59.3223ZM110.012 58.4965C110.637 58.5003 111.202 58.3561 111.708 58.0639C112.213 57.7544 112.641 57.3663 112.992 56.8994C113.359 56.4328 113.64 55.9134 113.834 55.3415C114.029 54.7695 114.128 54.2057 114.131 53.65C114.136 52.7643 113.907 52.0421 113.441 51.4836C112.993 50.9251 112.326 50.6431 111.44 50.6378C110.833 50.6341 110.276 50.7783 109.771 51.0706C109.282 51.3455 108.863 51.7163 108.513 52.1831C108.163 52.6326 107.89 53.1519 107.696 53.7412C107.502 54.3305 107.403 54.9378 107.398 55.563C107.393 56.4486 107.606 57.162 108.037 57.703C108.485 58.2268 109.144 58.4912 110.012 58.4965Z" fill="#9C9C9C"/>
<path d="M79.741 47.9231C80.1538 47.849 80.4283 47.4544 80.3543 47.0417L79.1471 40.3157C79.073 39.903 78.6784 39.6284 78.2656 39.7025C77.8529 39.7766 77.5784 40.1712 77.6524 40.584L78.7254 46.5626L72.7469 47.6356C72.3341 47.7097 72.0596 48.1043 72.1337 48.5171C72.2077 48.9298 72.6023 49.2044 73.0151 49.1303L79.741 47.9231ZM76.8195 45.2367L76.386 45.86L79.1733 47.7991L79.607 47.1758L80.0405 46.5525L77.2532 44.6134L76.8195 45.2367Z" fill="#9C9C9C"/>
</svg>